<svg xmlns="http://www.w3.org/2000/svg" width="24" height="24" viewBox="0 0 24 24"><defs><style>.a{fill:#1c1c1c;}.b{fill:#fff;}</style></defs><g transform="translate(-36 -780)"><rect class="a" width="24" height="24" rx="4" transform="translate(36 780)"/><g transform="translate(83.187 793.846)"><path class="b" d="M-31.388-3.027a2.082,2.082,0,0,1,1.52.9,4.5,4.5,0,0,1,.45,2.251,6.98,6.98,0,0,1-1.857,5.009A6.282,6.282,0,0,1-36,7.1a6.035,6.035,0,0,1-2.2-.394A5.771,5.771,0,0,1-40,5.585,5.9,5.9,0,0,1-41.294,3.9a5.5,5.5,0,0,1-.394-1.857,2.806,2.806,0,0,1,.45-1.632,2.45,2.45,0,0,1,1.407-.788,6.318,6.318,0,0,1-.281-.732,1.739,1.739,0,0,1-.113-.45,1.648,1.648,0,0,1,.563-1.126,1.541,1.541,0,0,1,1.069-.563,1.24,1.24,0,0,1,.45.056,1.737,1.737,0,0,1,.563.281c-.507-1.689-1.013-3.1-1.295-4.053a7.742,7.742,0,0,1-.394-1.97,1.585,1.585,0,0,1,.394-1.182,1.355,1.355,0,0,1,1.069-.45c.732,0,1.689,1.689,2.871,5.122.225.563.338,1.013.45,1.351.113-.225.225-.619.394-1.069,1.182-3.377,2.2-5.066,2.983-5.066a1.356,1.356,0,0,1,1.013.394A1.813,1.813,0,0,1-29.7-8.712a8.205,8.205,0,0,1-.394,1.97c-.338.957-.732,2.2-1.295,3.715Zm-8.668,4.953a3.539,3.539,0,0,1,.45.619c.507.732,1.013,1.126,1.463,1.126a.511.511,0,0,0,.394-.169.514.514,0,0,0,.169-.281A1.367,1.367,0,0,0-37.8,2.6a7.654,7.654,0,0,0-.675-.957c-.338-.394-.619-.732-.788-.9a1.158,1.158,0,0,0-.507-.281,1.054,1.054,0,0,0-.788.45A1.732,1.732,0,0,0-40.9,1.983a3.062,3.062,0,0,0,.225,1.126,4.76,4.76,0,0,0,.732,1.238,5.568,5.568,0,0,0,1.8,1.407,5.393,5.393,0,0,0,2.364.507,5.055,5.055,0,0,0,3.94-1.745A6.327,6.327,0,0,0-30.262.069a7.346,7.346,0,0,0-.113-1.295.992.992,0,0,0-.394-.675,4.955,4.955,0,0,0-1.914-.732,13.1,13.1,0,0,0-2.983-.338.905.905,0,0,0-.619.169.688.688,0,0,0-.169.507,1.184,1.184,0,0,0,.9,1.182,9.24,9.24,0,0,0,2.983.394h.507a.43.43,0,0,1,.281.113.814.814,0,0,1,.113.394,2.636,2.636,0,0,1-.844.45,3.66,3.66,0,0,0-.957.507,3.709,3.709,0,0,0-1.182,1.295,2.933,2.933,0,0,0-.45,1.407,3.431,3.431,0,0,0,.169.957,5.057,5.057,0,0,1,.169.675V5.3a1.014,1.014,0,0,1-.844-.619,3.164,3.164,0,0,1-.281-1.576V3c-.056.056-.113.113-.169.113s-.113.056-.225.056h-.225c-.056,0-.113-.056-.225-.056,0,.113.056.169.056.281v.225a1.111,1.111,0,0,1-.338.788,1.146,1.146,0,0,1-.844.338,2.363,2.363,0,0,1-1.576-.732,2.126,2.126,0,0,1-.788-1.463c0-.113,0-.169.056-.225,0-.281.056-.338.113-.394Zm3.659.281A.608.608,0,0,0-36,2.039a.608.608,0,0,0,.169-.394A4,4,0,0,0-36.172.576a8.968,8.968,0,0,0-.844-1.632,3.148,3.148,0,0,0-.732-.9.892.892,0,0,0-.675-.281c-.169,0-.338.113-.563.338a.784.784,0,0,0-.281.619,3.036,3.036,0,0,0,.281.9A11.07,11.07,0,0,0-38.2.857a6.765,6.765,0,0,0,1.013,1.126,2.865,2.865,0,0,0,.788.225Zm1.182-5.854-1.351-3.771a8.815,8.815,0,0,0-.788-1.914c-.169-.281-.338-.45-.563-.45a.511.511,0,0,0-.394.169.723.723,0,0,0-.225.563,7.821,7.821,0,0,0,.45,1.914c.281.9.732,2.139,1.295,3.6.056-.113.113-.169.225-.169a.714.714,0,0,1,.338-.056h.281a6.929,6.929,0,0,0,.732.113ZM-33.864.013A6.2,6.2,0,0,1-34.877-.1a4.214,4.214,0,0,1-.9-.225c.113.281.225.507.338.788a4.152,4.152,0,0,1,.225.788A6.742,6.742,0,0,1-34.6.576c.281-.225.507-.394.732-.563Zm1.632-3.265c.563-1.463.957-2.7,1.295-3.659a10.827,10.827,0,0,0,.45-1.745.951.951,0,0,0-.169-.563.511.511,0,0,0-.394-.169c-.225,0-.45.169-.675.563a9.742,9.742,0,0,0-.788,1.8l-1.238,3.49,1.52.281Z"/></g></g></svg>