<svg xmlns="http://www.w3.org/2000/svg" width="28.943" height="30.246" viewBox="0 0 28.943 30.246"><defs><style>.a{fill:#fff;}</style></defs><g transform="translate(0 -26.669)"><path class="a" d="M25.742,160.283H3.2a3.206,3.206,0,0,1-3.2-3.2v-22.55a3.206,3.206,0,0,1,3.2-3.2H25.742a3.206,3.206,0,0,1,3.2,3.2v22.541A3.2,3.2,0,0,1,25.742,160.283ZM3.2,133.1a1.427,1.427,0,0,0-1.428,1.428v22.541A1.427,1.427,0,0,0,3.2,158.5H25.742a1.427,1.427,0,0,0,1.428-1.428V134.532a1.427,1.427,0,0,0-1.428-1.428Z" transform="translate(0 -103.368)"/><path class="a" d="M600.877,32.752a.678.678,0,0,1-.681-.681V27.35a.681.681,0,0,1,1.361,0v4.713a.685.685,0,0,1-.681.689Zm-13,0a.678.678,0,0,1-.681-.681V27.35a.681.681,0,0,1,1.361,0v4.713a.68.68,0,0,1-.681.689Zm7.351,15.24a5.117,5.117,0,1,1,3.436-8.906.279.279,0,0,1-.378.412,4.554,4.554,0,1,0,0,6.738.279.279,0,0,1,.378.412,5.024,5.024,0,0,1-3.436,1.344Z" transform="translate(-579.94 0)"/></g></svg>