<svg xmlns="http://www.w3.org/2000/svg" width="24" height="24" viewBox="0 0 24 24"><defs><style>.a{fill:#005fff;}.b{fill:#fff;}</style></defs><g transform="translate(-43 -714)"><rect class="a" width="24" height="24" rx="4" transform="translate(43 714)"/><path class="b" d="M-2.187,3.075A3.642,3.642,0,0,0,1.233,1.2L-.207.36a2.267,2.267,0,0,1-2,1.11,2.343,2.343,0,0,1-2.43-2.505A2.351,2.351,0,0,1-2.2-3.541a2.267,2.267,0,0,1,2,1.11l1.44-.84a3.605,3.605,0,0,0-3.421-1.86,4.054,4.054,0,0,0-4.336,4.1A4.065,4.065,0,0,0-2.187,3.075ZM7.219-5.131A3.33,3.33,0,0,0,4.654-4.066v-4.1H2.779V2.97H4.564V1.935a3.3,3.3,0,0,0,2.655,1.14,3.9,3.9,0,0,0,4.066-4.111A3.89,3.89,0,0,0,7.219-5.131Zm-.21,6.6A2.341,2.341,0,0,1,4.624-1.036,2.341,2.341,0,0,1,7.009-3.541,2.33,2.33,0,0,1,9.38-1.036,2.33,2.33,0,0,1,7.009,1.47Z" transform="translate(52.713 728.393)"/></g></svg>