<svg xmlns="http://www.w3.org/2000/svg" width="23" height="26" viewBox="0 0 23 26"><defs><style>.a,.b{fill:#fff;}.c,.d{stroke:none;}.d{fill:#00c3ef;}</style></defs><g transform="translate(-35 -806)"><g transform="translate(30.5 804.5)"><path class="a" d="M12,3A3.75,3.75,0,1,1,8.25,6.75,3.75,3.75,0,0,1,12,3m0-1.5a5.25,5.25,0,1,0,5.25,5.25A5.25,5.25,0,0,0,12,1.5Z"/><path class="a" d="M19.5,22.5H18V18.75A3.75,3.75,0,0,0,14.25,15H9.75A3.75,3.75,0,0,0,6,18.75V22.5H4.5V18.75A5.25,5.25,0,0,1,9.75,13.5h4.5a5.25,5.25,0,0,1,5.25,5.25Z"/></g><g class="b" transform="translate(43 817)"><path class="c" d="M 6.5 14 C 5.488190174102783 14 4.506269931793213 13.80010032653809 3.581500053405762 13.40585041046143 C 2.663259983062744 13.01438999176025 1.858940005302429 12.47716999053955 1.190889954566956 11.80910015106201 C 0.5228400230407715 11.14105987548828 -0.01437999960035086 10.3367395401001 -0.4058499932289124 9.418510437011719 C -0.8001000285148621 8.493729591369629 -1 7.511809825897217 -1 6.5 C -1 5.488190174102783 -0.8001000285148621 4.506269931793213 -0.4058499932289124 3.581500053405762 C -0.01437999960035086 2.663259983062744 0.5228400230407715 1.858940005302429 1.190889954566956 1.190889954566956 C 1.858940005302429 0.5228400230407715 2.663259983062744 -0.01437999960035086 3.581490039825439 -0.4058499932289124 C 4.506269931793213 -0.8001000285148621 5.488190174102783 -1 6.5 -1 C 7.511809825897217 -1 8.493729591369629 -0.8001000285148621 9.418499946594238 -0.4058499932289124 C 10.3367395401001 -0.01437999960035086 11.14105987548828 0.5228400230407715 11.80910968780518 1.190889954566956 C 12.47716999053955 1.858940005302429 13.01438999176025 2.663259983062744 13.40585041046143 3.581500053405762 C 13.80010032653809 4.506269931793213 14 5.488190174102783 14 6.5 C 14 7.511809825897217 13.80010032653809 8.493729591369629 13.40585041046143 9.418499946594238 C 13.01438999176025 10.3367395401001 12.47716999053955 11.14105987548828 11.80910015106201 11.80910968780518 C 11.14105987548828 12.47716999053955 10.3367395401001 13.01438999176025 9.418499946594238 13.40585041046143 C 8.493729591369629 13.80010032653809 7.511809825897217 14 6.5 14 Z M 4.700406551361084 9.935532569885254 C 5.257912158966064 10.23103904724121 5.848299503326416 10.375 6.5 10.375 C 7.152218341827393 10.375 7.742989063262939 10.2308292388916 8.300885200500488 9.934846878051758 C 8.26796817779541 9.936612129211426 8.234777450561523 9.9375 8.201379776000977 9.9375 C 7.730909824371338 9.9375 7.306399822235107 9.761679649353027 6.973750114440918 9.429050445556641 L 6.491263389587402 8.946567535400391 L 6.017519950866699 9.425310134887695 L 6.015669822692871 9.427169799804688 L 6.013820171356201 9.429030418395996 C 5.681169986724854 9.761670112609863 5.256659984588623 9.9375 4.78617000579834 9.9375 C 4.757396221160889 9.9375 4.72882604598999 9.936842918395996 4.700406551361084 9.935532569885254 Z M 8.94657039642334 6.491260528564453 L 9.429030418395996 6.973720073699951 C 9.761679649353027 7.306399822235107 9.9375 7.730909824371338 9.9375 8.201379776000977 C 9.9375 8.234777450561523 9.936612129211426 8.26796817779541 9.934846878051758 8.300885200500488 C 10.2308292388916 7.742989063262939 10.375 7.152218341827393 10.375 6.5 C 10.375 5.848299503326416 10.23103904724121 5.257912158966064 9.935532569885254 4.700406551361084 C 9.936842918395996 4.728825092315674 9.9375 4.757397174835205 9.9375 4.78617000579834 C 9.9375 5.256659984588623 9.761670112609863 5.681169986724854 9.429030418395996 6.013820171356201 L 9.427169799804688 6.015669822692871 L 9.425310134887695 6.017519950866699 L 8.94657039642334 6.491260528564453 Z M 3.051004648208618 4.726031303405762 C 2.764581918716431 5.27600622177124 2.625 5.858268260955811 2.625 6.5 C 2.625 7.142076969146729 2.764748811721802 7.724652767181396 3.051483392715454 8.27488899230957 C 3.050521850585938 8.250509262084961 3.050040006637573 8.226017951965332 3.050040006637573 8.201379776000977 C 3.050040006637573 7.732661724090576 3.224582433700562 7.309532642364502 3.554810285568237 6.977440357208252 L 3.554810047149658 6.977439880371094 L 4.035940647125244 6.491236686706543 L 3.558520078659058 6.013820171356201 C 3.22586989402771 5.681169986724854 3.050040006637573 5.256659984588623 3.050040006637573 4.78617000579834 C 3.050040006637573 4.766039848327637 3.050362348556519 4.745989322662354 3.051004648208618 4.726031303405762 Z M 4.78617000579834 3.050040006637573 C 5.256659984588623 3.050040006637573 5.681169986724854 3.22586989402771 6.013820171356201 3.558510065078735 L 6.015669822692871 3.560369968414307 L 6.017519950866699 3.5622398853302 L 6.491260528564453 4.0409836769104 L 6.973720073699951 3.558520078659058 C 7.306399822235107 3.225860118865967 7.730909824371338 3.050040006637573 8.201379776000977 3.050040006637573 C 8.226018905639648 3.050040006637573 8.250508308410645 3.050521850585938 8.27488899230957 3.051483392715454 C 7.724652767181396 2.764748573303223 7.142076969146729 2.625 6.5 2.625 C 5.858268260955811 2.625 5.27600622177124 2.764581918716431 4.726031303405762 3.051004648208618 C 4.745989322662354 3.050362348556519 4.766039848327637 3.050040006637573 4.78617000579834 3.050040006637573 Z"/><path class="d" d="M 6.5 13 C 7.380390167236328 13 8.222499847412109 12.82865047454834 9.02632999420166 12.48596000671387 C 9.830169677734375 12.14326953887939 10.52206039428711 11.68194961547852 11.10200023651123 11.10200023651123 C 11.68194961547852 10.52206039428711 12.14326953887939 9.830169677734375 12.48596000671387 9.02632999420166 C 12.82865047454834 8.222499847412109 13 7.380390167236328 13 6.5 C 13 5.619609832763672 12.82865047454834 4.777500152587891 12.48596000671387 3.97367000579834 C 12.14326953887939 3.169830083847046 11.68194961547852 2.477940082550049 11.10200023651123 1.898000001907349 C 10.52206039428711 1.318060040473938 9.830169677734375 0.8567399978637695 9.02632999420166 0.5140399932861328 C 8.222499847412109 0.1713500022888184 7.380390167236328 -8.881784197001252e-16 6.5 -8.881784197001252e-16 C 5.619609832763672 -8.881784197001252e-16 4.777500152587891 0.1713500022888184 3.97367000579834 0.5140399932861328 C 3.169830083847046 0.8567399978637695 2.477940082550049 1.318060040473938 1.898000001907349 1.898000001907349 C 1.318060040473938 2.477940082550049 0.8567399978637695 3.169830083847046 0.5140399932861328 3.97367000579834 C 0.1713500022888184 4.777500152587891 -8.881784197001252e-16 5.619609832763672 -8.881784197001252e-16 6.5 C -8.881784197001252e-16 7.380390167236328 0.1713500022888184 8.222499847412109 0.5140399932861328 9.02632999420166 C 0.8567399978637695 9.830169677734375 1.318060040473938 10.52206039428711 1.898000001907349 11.10200023651123 C 2.477940082550049 11.68194961547852 3.169830083847046 12.14326953887939 3.97367000579834 12.48596000671387 C 4.777500152587891 12.82865047454834 5.619609832763672 13 6.5 13 M 6.5 1.625 C 7.380390167236328 1.625 8.195059776306152 1.84292995929718 8.944000244140625 2.27878999710083 C 9.692939758300781 2.71464991569519 10.28534984588623 3.30706000328064 10.72120952606201 4.056000232696533 C 11.15707015991211 4.804940223693848 11.375 5.619609832763672 11.375 6.5 C 11.375 7.380390167236328 11.15707015991211 8.195059776306152 10.72120952606201 8.944000244140625 C 10.28534984588623 9.692939758300781 9.692950248718262 10.28534984588623 8.944000244140625 10.72120952606201 C 8.195059776306152 11.15707015991211 7.380390167236328 11.375 6.5 11.375 C 5.619609832763672 11.375 4.804940223693848 11.15707015991211 4.056000232696533 10.72120952606201 C 3.30706000328064 10.28534984588623 2.71464991569519 9.692950248718262 2.27878999710083 8.944000244140625 C 1.84292995929718 8.195059776306152 1.625 7.380390167236328 1.625 6.5 C 1.625 5.619609832763672 1.84292995929718 4.804940223693848 2.27878999710083 4.056000232696533 C 2.71464991569519 3.30706000328064 3.30706000328064 2.71464991569519 4.056000232696533 2.27878999710083 C 4.804940223693848 1.84292995929718 5.619609832763672 1.625 6.5 1.625 M 8.201379776000977 8.9375 C 8.404680252075195 8.9375 8.578200340270996 8.865639686584473 8.721920013427734 8.721920013427734 C 8.865639686584473 8.578200340270996 8.9375 8.404680252075195 8.9375 8.201379776000977 C 8.9375 7.998069763183594 8.865639686584473 7.824560165405273 8.721920013427734 7.680830001831055 L 7.528629779815674 6.487539768218994 L 8.721920013427734 5.306709766387939 C 8.865639686584473 5.162990093231201 8.9375 4.9894700050354 8.9375 4.78617000579834 C 8.9375 4.582859992980957 8.865639686584473 4.409349918365479 8.721920013427734 4.265620231628418 C 8.578200340270996 4.121900081634521 8.404680252075195 4.050039768218994 8.201379776000977 4.050039768218994 C 7.998069763183594 4.050039768218994 7.824560165405273 4.121900081634521 7.680830001831055 4.265620231628418 L 6.487539768218994 5.458920001983643 L 5.306709766387939 4.265620231628418 C 5.162990093231201 4.121900081634521 4.9894700050354 4.050039768218994 4.78617000579834 4.050039768218994 C 4.582859992980957 4.050039768218994 4.409349918365479 4.121900081634521 4.265620231628418 4.265629768371582 C 4.121900081634521 4.409349918365479 4.050039768218994 4.582859992980957 4.050039768218994 4.78617000579834 C 4.050039768218994 4.9894700050354 4.121900081634521 5.162990093231201 4.265620231628418 5.306709766387939 L 5.446459770202637 6.487539768218994 L 4.265620231628418 7.680830001831055 C 4.121900081634521 7.824560165405273 4.050039768218994 7.998069763183594 4.050039768218994 8.201379776000977 C 4.050039768218994 8.404680252075195 4.121900081634521 8.578189849853516 4.265629768371582 8.721920013427734 C 4.409349918365479 8.865639686584473 4.582859992980957 8.9375 4.78617000579834 8.9375 C 4.9894700050354 8.9375 5.162990093231201 8.865639686584473 5.306709766387939 8.721920013427734 L 6.487539768218994 7.528629779815674 L 7.680830001831055 8.721920013427734 C 7.824560165405273 8.865639686584473 7.998069763183594 8.9375 8.201379776000977 8.9375 M 6.5 15 C 5.352650165557861 15 4.23878002166748 14.77315044403076 3.189330101013184 14.32575035095215 C 2.152940034866333 13.88391017913818 1.242650032043457 13.2750997543335 0.4837700128555298 12.51620006561279 C -0.2750900089740753 11.75734043121338 -0.883899986743927 10.84706974029541 -1.325739979743958 9.810680389404297 C -1.773149967193604 8.76121997833252 -2 7.647349834442139 -2 6.5 C -2 5.352650165557861 -1.773149967193604 4.23878002166748 -1.32574999332428 3.189330101013184 C -0.883899986743927 2.152930021286011 -0.2750900089740753 1.242660045623779 0.4837900102138519 0.4837900102138519 C 1.242660045623779 -0.2750900089740753 2.152930021286011 -0.883899986743927 3.189320087432861 -1.325739979743958 C 4.23878002166748 -1.773149967193604 5.352650165557861 -2 6.5 -2 C 7.647349834442139 -2 8.76121997833252 -1.773149967193604 9.810669898986816 -1.32574999332428 C 10.84706974029541 -0.883899986743927 11.75734043121338 -0.2750900089740753 12.51620960235596 0.4837900102138519 C 13.2750997543335 1.242650032043457 13.88391017913818 2.152940034866333 14.32575035095215 3.189340114593506 C 14.77315044403076 4.23878002166748 15 5.352650165557861 15 6.5 C 15 7.647349834442139 14.77315044403076 8.76121997833252 14.32575035095215 9.810669898986816 C 13.88391017913818 10.84706020355225 13.2750997543335 11.75734996795654 12.51620006561279 12.5162296295166 C 11.75734996795654 13.2750997543335 10.84706020355225 13.88391017913818 9.810660362243652 14.32575035095215 C 8.76121997833252 14.77315044403076 7.647349834442139 15 6.5 15 Z"/></g></g></svg>