<svg xmlns="http://www.w3.org/2000/svg" width="21" height="21" viewBox="0 0 21 21"><defs><style>.a{fill:#c7201b;}</style></defs><g transform="translate(-1.5 -1.5)"><path class="a" d="M22.5,13.5V12H18v7.5h1.5v-3h2.25V15H19.5V13.5Z"/><path class="a" d="M14.25,19.5h-3V12h3a2.252,2.252,0,0,1,2.25,2.25v3a2.252,2.252,0,0,1-2.25,2.25ZM12.75,18h1.5a.751.751,0,0,0,.75-.75v-3a.751.751,0,0,0-.75-.75h-1.5Z"/><path class="a" d="M8.25,12H4.5v7.5H6V17.25H8.25a1.5,1.5,0,0,0,1.5-1.5V13.5A1.5,1.5,0,0,0,8.25,12ZM6,15.75V13.5H8.25v2.25Z"/><path class="a" d="M16.5,10.5v-3a.682.682,0,0,0-.225-.525l-5.25-5.25A.682.682,0,0,0,10.5,1.5H3A1.5,1.5,0,0,0,1.5,3V21A1.5,1.5,0,0,0,3,22.5H15V21H3V3H9V7.5A1.5,1.5,0,0,0,10.5,9H15v1.5Zm-6-3V3.3l4.2,4.2Z"/></g></svg>