<svg xmlns="http://www.w3.org/2000/svg" width="212.634" height="39.348" viewBox="0 0 212.634 39.348"><defs><style>.a{fill:#1f88f5;}.b{fill:#1e87f4;}</style></defs><g transform="translate(-68.078 -143.485)"><path class="a" d="M-79.9,0h7.632C-66.768,0-63-3.312-63-8.4s-3.768-8.4-9.264-8.4H-79.9Zm3.888-3.192V-13.608h3.552c3.336,0,5.52,1.992,5.52,5.208s-2.184,5.208-5.52,5.208Zm19.248-8.016v-1.7h-3.576V0h3.744V-6.1c0-2.472,1.368-3.6,3.432-3.6.288,0,.528.024.84.048V-13.1A5.211,5.211,0,0,0-56.76-11.208Zm11.808-1.9a9.926,9.926,0,0,0-5.568,1.56l1.344,2.616a6.208,6.208,0,0,1,3.72-1.2c2.016,0,2.976.936,2.976,2.544h-2.976C-49.392-7.584-51-6-51-3.72-51-1.488-49.2.192-46.176.192c1.9,0,3.24-.624,3.936-1.8V0h3.5V-7.368C-38.736-11.28-41.016-13.1-44.952-13.1ZM-45.24-2.328c-1.32,0-2.112-.624-2.112-1.56,0-.864.552-1.512,2.3-1.512h2.568v1.32A2.759,2.759,0,0,1-45.24-2.328ZM-27.72-13.1a5.017,5.017,0,0,0-4.056,1.68v-1.488h-3.576V4.656h3.744V-1.368A5.013,5.013,0,0,0-27.72.192a6.271,6.271,0,0,0,6.432-6.648A6.271,6.271,0,0,0-27.72-13.1ZM-28.368-2.88a3.259,3.259,0,0,1-3.288-3.576,3.259,3.259,0,0,1,3.288-3.576A3.259,3.259,0,0,1-25.08-6.456,3.259,3.259,0,0,1-28.368-2.88ZM-6.144-6.408a6.392,6.392,0,0,0-6.72-6.7,6.573,6.573,0,0,0-6.888,6.648c0,3.84,2.9,6.648,7.368,6.648A6.763,6.763,0,0,0-7.056-1.9l-1.992-2.16a4.377,4.377,0,0,1-3.24,1.248,3.443,3.443,0,0,1-3.7-2.592h9.768C-6.192-5.712-6.144-6.12-6.144-6.408Zm-6.7-3.864A3.068,3.068,0,0,1-9.672-7.584h-6.36A3.057,3.057,0,0,1-12.84-10.272Zm12.768-.936v-1.7H-3.648V0H.1V-6.1c0-2.472,1.368-3.6,3.432-3.6.288,0,.528.024.84.048V-13.1A5.211,5.211,0,0,0-.072-11.208ZM27.12,0l-4.2-5.88a5.155,5.155,0,0,0,3.936-5.256c0-3.552-2.544-5.664-6.768-5.664H14.064V0h1.224V-5.5h4.8a11.86,11.86,0,0,0,1.632-.12L25.728,0ZM15.288-6.576V-15.7h4.8c3.6,0,5.52,1.656,5.52,4.56,0,2.88-1.92,4.56-5.52,4.56ZM37.08-12.624a5.181,5.181,0,0,0-4.92,2.712v-7.9h-1.2V0h1.2V-6.672c0-2.976,1.8-4.872,4.752-4.872,2.544,0,4.056,1.488,4.056,4.32V0h1.2V-7.32C42.168-10.824,40.128-12.624,37.08-12.624Zm10.632-2.952a.973.973,0,0,0,.984-.984.968.968,0,0,0-.984-.96.988.988,0,0,0-.984.984A.968.968,0,0,0,47.712-15.576ZM47.112,0h1.2V-12.528h-1.2ZM59.5-12.624a5.171,5.171,0,0,0-4.968,2.808v-2.712H53.376V0h1.2V-6.672c0-2.976,1.8-4.872,4.752-4.872,2.544,0,4.056,1.488,4.056,4.32V0h1.2V-7.32C64.584-10.824,62.544-12.624,59.5-12.624ZM74.448.1a6.1,6.1,0,0,0,6.264-6.36,6.1,6.1,0,0,0-6.264-6.36,6.1,6.1,0,0,0-6.264,6.36A6.1,6.1,0,0,0,74.448.1Zm0-1.08a4.97,4.97,0,0,1-5.04-5.28,4.97,4.97,0,0,1,5.04-5.28,4.97,4.97,0,0,1,5.04,5.28A4.97,4.97,0,0,1,74.448-.984Z" transform="translate(200 172)"/><g transform="translate(29 40)"><g transform="translate(39.078 103.485)"><path class="b" d="M28.169,42.466a2.3,2.3,0,0,1,.18-1.24,21.748,21.748,0,0,0,2.247-9.15c-.026-1.95-.813-2.757-1.556-4.585a6.53,6.53,0,0,0-.312-.639c-.032-.06-.106-.1-.242-.21a19.563,19.563,0,0,1,.042,7.029c-.41,1.851-1.231,3.36-3.138,4.046a6.7,6.7,0,0,0-.91.512c.213-.933,2.158-4.265,0-6.871-.058.393-.72,4.031-2.387,5.654-.781,1.435-3.512,1.762-4.874-.8a12.39,12.39,0,0,1-.5-1.22c1.907-.662,1.135-1.089,1.035-3.293-.983,1.484-.842.76-2.144,1.635-.428.288-.768.009-1.249-.193a5.489,5.489,0,0,1-2.911-2.324A8.232,8.232,0,0,0,5.2,29.572a36.682,36.682,0,0,1,1,4.085,35.2,35.2,0,0,0,2.126,5.867,32.645,32.645,0,0,0,2.717,6.01c.528.766,1.024,1.482,1.437,2.224a1.945,1.945,0,0,1,2.092-.485A32.956,32.956,0,0,0,21.4,48.5c.781.116,1.559.252,2.343.344a2.841,2.841,0,0,0,2.211-.657A2.354,2.354,0,0,1,28,47.567c.525.107.758-.13.7-.637C28.526,45.442,28.314,43.957,28.169,42.466Z" transform="translate(-3.82 -19.556)"/><path class="b" d="M82.838,4.5c-1.782-.931-3.565-1.862-5.294-2.873A11.051,11.051,0,0,0,71.988,0h0V1.933A11.215,11.215,0,0,1,77.6,3.727c2.74,1.649,5.693,2.953,8.592,4.336a20.72,20.72,0,0,0,2.767.851,2.356,2.356,0,0,1,0,.612A46.348,46.348,0,0,1,84.274,24.5a30.979,30.979,0,0,1-10.96,12.1,2.769,2.769,0,0,1-1.326.479v2.263a1.615,1.615,0,0,0,.741-.215,29.375,29.375,0,0,0,8.885-7.182c4.682-5.56,7.289-12.077,8.7-19.127.372-1.889.532-3.8.825-5.8C87.893,7.158,85.365,5.828,82.838,4.5Z" transform="translate(-52.838 -0.001)"/><path class="b" d="M8.3,4.5c1.782-.931,3.565-1.862,5.294-2.873A11.053,11.053,0,0,1,19.15,0h0V1.933a11.213,11.213,0,0,0-5.609,1.794C10.8,5.376,7.849,6.68,4.949,8.063a20.721,20.721,0,0,1-2.767.851,2.332,2.332,0,0,0,0,.612A46.348,46.348,0,0,0,6.864,24.5a30.979,30.979,0,0,0,10.96,12.1,2.765,2.765,0,0,0,1.326.479v2.263a1.616,1.616,0,0,1-.741-.215,29.371,29.371,0,0,1-8.885-7.182c-4.682-5.56-7.289-12.077-8.7-19.127C.453,10.936.294,9.021,0,7.026,3.246,7.159,5.773,5.829,8.3,4.5Z" transform="translate(-0.001 -0.001)"/></g></g></g></svg>