<svg xmlns="http://www.w3.org/2000/svg" width="225.449" height="53.629" viewBox="0 0 338.173 80.444"><defs><style>.a,.b{fill:#0d2a4c;}.a{stroke:rgba(0,0,0,0);stroke-miterlimit:10;}</style></defs><g transform="translate(-48.029 -467.731)"><path class="a" d="M14943.219,79.444a3.1,3.1,0,0,1-1.568-.429c-1.552-.911-3.057-1.875-4.474-2.865a18.238,18.238,0,0,1,1.624-1.071,26.317,26.317,0,0,1,13.434-3.29c.777,0,1.621.028,2.507.083a66.357,66.357,0,0,1-9.959,7.143A3.091,3.091,0,0,1,14943.219,79.444ZM14933.03,73l0,0c-1.416-1.164-2.814-2.415-4.156-3.72a27.3,27.3,0,0,1,5.393-4.423,26.248,26.248,0,0,1,13.422-3.292,41.448,41.448,0,0,1,4.981.314,57.5,57.5,0,0,1,7.756,1.519c.675.176,1.368.368,2.059.57-1.37,1.646-2.822,3.233-4.313,4.719a45.126,45.126,0,0,0-8.7-.906c-.862,0-1.715.03-2.534.09a27.5,27.5,0,0,0-7.361,1.534A23.88,23.88,0,0,0,14933.03,73Zm-7.627-7.352h0c-1.128-1.271-2.218-2.592-3.237-3.926a74.059,74.059,0,0,1-8.328-13.847,82.859,82.859,0,0,1-5.489-16.11A95.46,95.46,0,0,1,14906,13.7a3.435,3.435,0,0,1,2.467-3.429L14942.85.053a1.373,1.373,0,0,1,.369-.053,1.392,1.392,0,0,1,.372.053l34.378,10.219a3.435,3.435,0,0,1,2.466,3.429,89.7,89.7,0,0,1-6.467,31.036,74.61,74.61,0,0,1-9.518,16.756l-.009,0a81.477,81.477,0,0,0-8.475-2.523,52.216,52.216,0,0,0-8.181-1.3,4.473,4.473,0,0,1-1.034-2.756c-.07-2.058-.051-4.135-.032-6.144q.006-.562.01-1.124c0-.236.151-.6.313-.654.136-.05.271-.1.407-.154l0,0a9.387,9.387,0,0,1,2.23-.645,15.07,15.07,0,0,1,1.7-.1,16.016,16.016,0,0,1,8.813,2.774c.815.523,1.67,1.008,2.5,1.476l.078.044c.381.216.774.439,1.167.668.46-.749.873-1.417,1.339-2.169l.105-.17.007-.011-1.991-1.117-.95-.534-.16-.09c-1.506-.845-2.934-1.647-4.4-2.47a3.008,3.008,0,0,1,2.19-.884,5.206,5.206,0,0,1,1.547.264c1.175.37,2.3.833,3.485,1.323l.038.015c.491.2,1,.412,1.511.613q.485-1.156,1.015-2.425c-.171-.081-.323-.158-.471-.233l-.012-.006a6.463,6.463,0,0,0-.8-.366c-.465-.166-.948-.347-1.374-.507a31.424,31.424,0,0,0-3.784-1.241,6.212,6.212,0,0,0-1.424-.172,5.627,5.627,0,0,0-4.147,1.894,2.263,2.263,0,0,1-1.54.89,1.62,1.62,0,0,1-.73-.191.8.8,0,0,0-.368-.07c-.092,0-.187.007-.279.014s-.187.014-.277.014l-1.366,0h-3.007c.376-.385.75-.771,1.112-1.144l.064-.067c1.189-1.228,2.313-2.388,3.508-3.522a.721.721,0,0,1,.482-.129,1.908,1.908,0,0,1,.781.167,21.981,21.981,0,0,1,1.931,1.125l.041.026c.228.143.463.291.7.436.458-.4.93-.817,1.5-1.312l.5-.436-1.083-.829-.686-.525-.908-.695a5.872,5.872,0,0,1,2.608-.739,3.457,3.457,0,0,1,1.117.183,20.812,20.812,0,0,1,3.666,1.714,13.947,13.947,0,0,0,4.861,1.771c.022-.184.049-.379.08-.6v-.007a11.606,11.606,0,0,0,.147-1.584.955.955,0,0,0-.545-.65c-.377-.162-.77-.3-1.149-.429l-.008,0a11.9,11.9,0,0,1-1.516-.6c-1.015-.518-1.985-1.073-3.012-1.661l-.013-.007c-.485-.278-.961-.55-1.438-.817,1.381-1.754,3.354-1.834,5.264-1.911.6-.024,1.228-.049,1.823-.127-.276-2.128-.342-2.634-1.568-2.634-.355,0-.812.041-1.393.093-.084.008-.167.012-.248.016l-.126.007c-3.208.262-5.386,1.592-6.658,4.068a1.738,1.738,0,0,1-.808.628c-.491.234-1,.449-1.5.657l-.013.005a18.478,18.478,0,0,0-2.754,1.338,26.167,26.167,0,0,0-6.955,6.771c.029-.123.059-.247.087-.371l0-.018a24.215,24.215,0,0,1,1.04-3.6,10.173,10.173,0,0,1,4.053-4.621,13.965,13.965,0,0,0,4.222-4.267c.266-.426.563-.85.825-1.225l.02-.027c.31-.445.631-.9.915-1.375.256-.426.506-.691.961-.691a1.886,1.886,0,0,1,.517.085,7.892,7.892,0,0,0,2.237.335,8.309,8.309,0,0,0,4.864-1.685q-.4-.673-.778-1.315l-.2-.329-.25-.42-.156-.263a6.157,6.157,0,0,1-3.5,1.266,4.738,4.738,0,0,1-1.513-.254c.513-.731,1.007-1.438,1.51-2.158l.384-.548.813-1.162-.383-.41c-.542-.58-1.011-1.082-1.535-1.646l-2.231,3.254-1.563,2.279-2.314,3.374a7.7,7.7,0,0,1-.681-6.388c.4-1.343.863-2.636,1.357-4l0-.006c.226-.621.444-1.229.656-1.836l-1.077-.523-1.3-.631c-.143.363-.286.72-.427,1.07l-.147.369c-.35.869-.681,1.69-1,2.535-1.253,3.333-2.263,7.7,1.075,11.907-.586.648-1.184,1.309-1.88,2.083-.468-1.506-.925-2.982-1.384-4.5l-.837.456c-.487.266-1.061.578-1.614.882,1.5,4.166,1.085,5.148-1.2,7.23l0-2.417V32.38c0-1.748.008-3.4-.008-5.082a27.8,27.8,0,0,1,2.26-11.324c.514-1.192,1.017-2.371,1.55-3.619l.159-.373.129-.3c-.2-.04-.386-.07-.568-.1h-.006a5.178,5.178,0,0,1-1.061-.245,1.586,1.586,0,0,0-.576-.128c-.548,0-.8.465-1,.966-.729,1.908-1.51,3.884-2.2,5.627q-.409,1.033-.816,2.069c-3.226-1.907-3.541-5.12-3.605-8.813-.232.04-.452.076-.665.11a13.66,13.66,0,0,0-1.489.293.828.828,0,0,0-.519.587,12.6,12.6,0,0,0,1.883,7.358,11.071,11.071,0,0,0,3.888,3.387v5.485a11.825,11.825,0,0,0-4.481-3.44l-.213.478c-.266.6-.566,1.273-.885,1.984a6.555,6.555,0,0,1,3.78,4.077,17.826,17.826,0,0,1,.54,5.518c-1.267-2.884-3.582-4.778-5.9-6.4a12.03,12.03,0,0,1-1.391-1.207c-.2-.194-.407-.392-.617-.582a10.453,10.453,0,0,0,2.108-4.443,10.405,10.405,0,0,0-.243-4.79c-.421-1.517-.942-2.972-1.5-4.512l-.007-.019,0-.012c-.255-.709-.518-1.443-.769-2.179l-1.158.583-1.388.7c.037.091.07.172.1.25l0,.009,0,.008c.064.154.121.287.163.421.2.587.407,1.182.612,1.757l.026.075,0,.015c.5,1.405,1.014,2.858,1.379,4.322a6.678,6.678,0,0,1-.9,5.3c-1.451-2.111-2.871-4.179-4.282-6.233l-1.74-2.534-.894.817-1.148,1.048.931,1.329.295.421c.514.732,1.017,1.451,1.53,2.182a4.556,4.556,0,0,1-1.5.258,6.823,6.823,0,0,1-3.535-1.251c-.422.725-.844,1.448-1.364,2.346a8.919,8.919,0,0,0,4.847,1.668,6.75,6.75,0,0,0,1.97-.3,2.368,2.368,0,0,1,.673-.114c.614,0,.965.378,1.3.945,2.7,4.537,4.972,6.269,6.65,7.271a5.586,5.586,0,0,1,1.055.9,11.052,11.052,0,0,1,3.122,6.8c-.106-.083-.2-.147-.273-.2a1.587,1.587,0,0,1-.3-.251c-.221-.27-.437-.554-.646-.828l-.022-.03a16.437,16.437,0,0,0-1.384-1.661c-2.227-2.257-4.912-4.736-8.616-5.594-.336-.073-.636-.532-.749-.726-1.483-2.524-2.867-3.12-3.906-3.357a41.24,41.24,0,0,0-4.221-.649l-.137-.016-.409-.049-.034,0a.842.842,0,0,0-.635.416,16.217,16.217,0,0,0-.461,1.579l-.024.095c-.043.166-.087.338-.132.5.514.061,1.02.115,1.509.168h.008c1.1.118,2.137.229,3.176.407a2.981,2.981,0,0,1,2.451,1.662c-.3.144-.62.284-.9.408a19.27,19.27,0,0,0-1.95.957c-.289.17-.576.351-.829.511a8.072,8.072,0,0,1-3.514,1.489.869.869,0,0,0-.545.665,12.007,12.007,0,0,0,.187,1.59l.015.091c.029.184.061.374.088.568l.313-.065.015,0c.341-.071.636-.132.932-.2a14.652,14.652,0,0,0,4.338-2.028c.288-.175.582-.354.877-.528a5.882,5.882,0,0,1,3-.868,6.043,6.043,0,0,1,2.781.722c-.7.535-1.636,1.247-2.643,2.026.854.785,1.434,1.32,1.879,1.733l.7-.382.04-.022c.882-.484,1.715-.941,2.561-1.367a.682.682,0,0,1,.294-.058.557.557,0,0,1,.371.107c.3.293.62.585.9.843a15.2,15.2,0,0,1,3.533,4.184h-.762l-.336,0c-.395-.009-.8-.026-1.187-.042h-.006c-.57-.024-1.159-.048-1.737-.048-.412,0-.782.012-1.131.038-.112.008-.215.012-.312.012a2.055,2.055,0,0,1-1.578-.636,6.271,6.271,0,0,0-4.343-2.03h-.072c-2.543,0-4.719,1.041-7.022,2.143l-.089.043-.621.3c.095.278.187.548.276.813l.1.292c.089.262.177.521.266.781.082.243.165.487.249.734.1-.044.2-.081.285-.114l.018-.007.006,0a2.524,2.524,0,0,0,.447-.2,17.047,17.047,0,0,1,5.173-1.944,3.086,3.086,0,0,1,.74-.093,3.853,3.853,0,0,1,2.23.822c-1.282.722-2.563,1.446-3.8,2.146l-.88.5-2.92,1.648c.461.723.858,1.343,1.244,1.943l.1.16.134.209c.608-.351,1.221-.709,1.745-1.017l.044-.025c1.166-.683,2.268-1.327,3.4-1.95a14.614,14.614,0,0,1,7.1-2,12.518,12.518,0,0,1,4.158.727.937.937,0,0,1,.76,1.056c-.027,1.424-.024,2.871-.021,4.271v.113q0,.742,0,1.485a5.858,5.858,0,0,1-1.8,4.722,23.841,23.841,0,0,0-10.256,5.384c-.621.559-1.19,1.141-1.854,1.843Z" transform="translate(-14857.469 468.231)"/><path class="b" d="M95.282,387.353H105.3c7.642,0,12.839,4.823,12.839,11.888s-5.2,11.888-12.839,11.888H95.282Zm9.816,20.821c5.876,0,9.646-3.6,9.646-8.933s-3.77-8.933-9.646-8.933h-6.42v17.866Z" transform="translate(48 91)"/><path class="b" d="M132.538,392.957v3.159a5.756,5.756,0,0,0-.747-.034c-3.5,0-5.673,2.14-5.673,6.08v8.967h-3.261v-18h3.125v3.023c1.156-2.106,3.4-3.193,6.556-3.193" transform="translate(48 91)"/><path class="b" d="M150.775,400.259v10.869h-3.091v-2.377c-1.087,1.63-3.091,2.581-5.91,2.581-4.076,0-6.657-2.174-6.657-5.3,0-2.887,1.868-5.265,7.234-5.265h5.163v-.645c0-2.752-1.6-4.348-4.823-4.348a9.1,9.1,0,0,0-5.706,1.936l-1.359-2.446a11.99,11.99,0,0,1,7.439-2.309c4.925,0,7.71,2.377,7.71,7.3m-3.261,5.367v-2.514h-5.026c-3.228,0-4.145,1.257-4.145,2.785,0,1.8,1.495,2.922,3.975,2.922a5.22,5.22,0,0,0,5.2-3.193" transform="translate(48 91)"/><path class="b" d="M175.466,402.128c0,5.537-3.838,9.205-9.1,9.205a7.689,7.689,0,0,1-6.284-2.921v9.306h-3.261V393.127h3.125v2.853a7.669,7.669,0,0,1,6.42-3.023,8.738,8.738,0,0,1,9.1,9.171m-3.295,0a6.068,6.068,0,1,0-12.126,0c0,3.838,2.615,6.352,6.046,6.352,3.465,0,6.08-2.514,6.08-6.352" transform="translate(48 91)"/><path class="b" d="M199.341,403.215H184.736c.407,3.158,2.955,5.264,6.521,5.264a6.722,6.722,0,0,0,5.2-2.173l1.8,2.106a9.042,9.042,0,0,1-7.1,2.92c-5.808,0-9.68-3.837-9.68-9.2a8.816,8.816,0,0,1,9.035-9.171c5.2,0,8.9,3.736,8.9,9.273,0,.271-.033.679-.068.985m-14.605-2.344h11.548a5.81,5.81,0,0,0-11.548,0" transform="translate(48 91)"/><path class="b" d="M213.6,392.957v3.159a5.757,5.757,0,0,0-.747-.034c-3.5,0-5.673,2.14-5.673,6.08v8.967h-3.261v-18h3.125v3.023c1.156-2.106,3.4-3.193,6.556-3.193" transform="translate(48 91)"/><path class="b" d="M127.652,428.105,119.6,451.881h-1.834l-7.37-21.33-7.4,21.33h-1.834l-8.084-23.776h1.834l7.235,21.4,7.439-21.4h1.664l7.4,21.433,7.3-21.433Z" transform="translate(48 91)"/><path class="b" d="M143.542,440.639v11.243h-1.631v-3.159c-1.121,2.038-3.294,3.3-6.384,3.3-3.974,0-6.386-2.038-6.386-5.061,0-2.683,1.7-4.959,6.623-4.959h6.08v-1.427c0-3.3-1.8-5.061-5.266-5.061a9.2,9.2,0,0,0-6.113,2.242l-.85-1.223a10.821,10.821,0,0,1,7.1-2.513c4.382,0,6.828,2.241,6.828,6.623m-1.7,6.012v-3.329H135.8c-3.668,0-4.959,1.529-4.959,3.567,0,2.31,1.8,3.736,4.925,3.736a6.077,6.077,0,0,0,6.08-3.974" transform="translate(48 91)"/><rect class="b" width="1.698" height="25.203" transform="translate(198.535 517.679)"/><rect class="b" width="1.698" height="25.203" transform="translate(207.398 517.679)"/><path class="b" d="M183.241,443.424h-15.25a7.586,7.586,0,0,0,13.179,4.585l.984,1.121a8.488,8.488,0,0,1-6.692,2.887c-5.366,0-9.136-3.736-9.136-9s3.635-9,8.492-9,8.457,3.668,8.457,8.933c0,.136-.034.306-.034.476M168.024,442.1h13.587a6.8,6.8,0,0,0-13.587,0" transform="translate(48 91)"/><path class="b" d="M204.3,426.679v25.2h-1.664V447.7a7.865,7.865,0,0,1-7.268,4.314,8.594,8.594,0,0,1-8.764-9c0-5.333,3.77-9,8.764-9a7.948,7.948,0,0,1,7.234,4.246V426.679Zm-1.7,16.337c0-4.449-3.057-7.473-7.133-7.473s-7.133,3.024-7.133,7.473,3.057,7.473,7.133,7.473,7.133-3.023,7.133-7.473" transform="translate(48 91)"/><path class="b" d="M237.714,440.1h1.664v8.9a12.238,12.238,0,0,1-8.491,3.057c-7.167,0-12.432-5.129-12.432-12.058s5.265-12.058,12.466-12.058a11.629,11.629,0,0,1,8.56,3.261l-1.087,1.155a10.026,10.026,0,0,0-7.44-2.819c-6.181,0-10.766,4.483-10.766,10.461a10.979,10.979,0,0,0,17.526,8.288Z" transform="translate(48 91)"/><path class="b" d="M259.243,440.639v11.243h-1.63v-3.159c-1.121,2.038-3.3,3.3-6.385,3.3-3.974,0-6.386-2.038-6.386-5.061,0-2.683,1.7-4.959,6.623-4.959h6.08v-1.427c0-3.3-1.8-5.061-5.265-5.061a9.2,9.2,0,0,0-6.113,2.242l-.85-1.223a10.819,10.819,0,0,1,7.1-2.513c4.382,0,6.827,2.241,6.827,6.623m-1.7,6.012v-3.329H251.5c-3.668,0-4.959,1.529-4.959,3.567,0,2.31,1.8,3.736,4.925,3.736a6.077,6.077,0,0,0,6.08-3.974" transform="translate(48 91)"/><path class="b" d="M274.627,434.015v1.665c-.136,0-.271-.035-.408-.035-3.94,0-6.283,2.616-6.283,7v9.239h-1.7v-17.73h1.63v3.872c1.087-2.581,3.431-4.008,6.76-4.008" transform="translate(48 91)"/><path class="b" d="M294.9,426.679v25.2h-1.664V447.7a7.865,7.865,0,0,1-7.268,4.314,8.594,8.594,0,0,1-8.764-9c0-5.333,3.77-9,8.764-9a7.948,7.948,0,0,1,7.234,4.246V426.679Zm-1.7,16.337c0-4.449-3.057-7.473-7.133-7.473s-7.133,3.024-7.133,7.473,3.057,7.473,7.133,7.473,7.133-3.023,7.133-7.473" transform="translate(48 91)"/><path class="b" d="M317.044,443.424h-15.25a7.586,7.586,0,0,0,13.179,4.585l.984,1.121a8.488,8.488,0,0,1-6.692,2.887c-5.366,0-9.136-3.736-9.136-9s3.635-9,8.492-9,8.457,3.668,8.457,8.933c0,.136-.034.306-.034.476M301.827,442.1h13.587a6.8,6.8,0,0,0-13.587,0" transform="translate(48 91)"/><path class="b" d="M338.2,441.522v10.36h-1.7V441.658c0-4.008-2.141-6.114-5.74-6.114-4.179,0-6.726,2.684-6.726,6.895v9.443h-1.7V434.151h1.63v3.839c1.189-2.48,3.669-3.974,7.031-3.974,4.313,0,7.2,2.547,7.2,7.506" transform="translate(48 91)"/></g></svg>