<svg xmlns="http://www.w3.org/2000/svg" width="112" height="112" viewBox="0 0 112 112"><defs><style>.a{fill:#dce5ef;}.b{fill:#aaa;}.c{fill:#d7d8db;}.d{fill:#e0e8fa;}.e{fill:#00506a;}.f{fill:#feffff;}.g{fill:#f0f3f7;}</style></defs><g transform="translate(-149.535 -223.933)"><circle class="a" cx="56" cy="56" r="56" transform="translate(149.535 223.933)"/><g transform="translate(168.313 235.123)"><path class="b" d="M162.9,254.313V294.2a4.736,4.736,0,0,0,4.736,4.736h66.494a4.736,4.736,0,0,0,4.736-4.736v-39.89Z" transform="translate(-162.901 -225.402)"/><path class="c" d="M237.166,256.78l-33.831-24.735a4.155,4.155,0,0,0-4.9,0L164.6,256.78a4.152,4.152,0,0,0-1.7,3.353v.024h75.966v-.024A4.154,4.154,0,0,0,237.166,256.78Z" transform="translate(-162.901 -231.245)"/><rect class="d" width="56.457" height="45.236" rx="1.185" transform="translate(9.837 22.257)"/><g transform="translate(17.791 33.869)"><path class="e" d="M177.849,259.774h39.216a.753.753,0,0,0,0-1.505H177.849a.753.753,0,1,0,0,1.505Z" transform="translate(-177.096 -258.269)"/><path class="e" d="M217.065,263.426H177.849a.753.753,0,1,0,0,1.505h39.216a.753.753,0,0,0,0-1.505Z" transform="translate(-177.096 -256.963)"/><path class="e" d="M217.065,268.583H177.849a.753.753,0,1,0,0,1.505h39.216a.753.753,0,0,0,0-1.505Z" transform="translate(-177.096 -255.657)"/></g><path class="f" d="M166.68,298.939h66.573a4.656,4.656,0,0,0,4.657-4.656v-39.97Z" transform="translate(-161.944 -225.402)"/><path class="g" d="M162.9,254.313v39.97a4.656,4.656,0,0,0,4.657,4.656h66.573Z" transform="translate(-162.901 -225.402)"/></g></g></svg>