<svg xmlns="http://www.w3.org/2000/svg" width="24.471" height="24.471" viewBox="0 0 24.471 24.471"><defs><style>.a{fill:#1e87f4;}</style></defs><path class="a" d="M4.8.009A4.81,4.81,0,0,0,.007,4.8V19.685A4.809,4.809,0,0,0,4.8,24.48H19.683a4.808,4.808,0,0,0,4.794-4.794V4.8a4.81,4.81,0,0,0-4.794-4.8ZM6.008,4.047a1.927,1.927,0,1,1-.024,3.842H5.96a1.926,1.926,0,1,1,.048-3.842Zm10.9,5.1c2.432,0,4.254,1.589,4.254,5.005v6.376h-3.7V14.58c0-1.495-.535-2.515-1.872-2.515a2.024,2.024,0,0,0-1.9,1.351,2.523,2.523,0,0,0-.122.9v6.21h-3.7s.048-10.077,0-11.12h3.7v1.575A3.669,3.669,0,0,1,16.9,9.147ZM4.136,9.409h3.7V20.528h-3.7V9.409Z" transform="translate(-0.007 -0.009)"/></svg>