<svg xmlns="http://www.w3.org/2000/svg" width="19.5" height="19.5" viewBox="0 0 19.5 19.5"><defs><style>.a{fill:#fff;}</style></defs><g transform="translate(-2.25 -2.25)"><path class="a" d="M9,13h8.892l-2.044,2.1,1.4,1.4,4.5-4.5-4.5-4.5L15.8,8.9l2.1,2.1H9Z"/><path class="a" d="M11.986,19.748A7.753,7.753,0,0,1,6.516,6.519a7.729,7.729,0,0,1,10.931-.01l1.42-1.42A10.294,10.294,0,0,0,17.569,4a9.758,9.758,0,1,0,1.293,14.9l-1.416-1.416a7.671,7.671,0,0,1-5.461,2.259Z"/><path class="a" d="M21,12.04,20.96,12l.04-.04.04.04Z"/></g></svg>