<svg id="Group_8514" data-name="Group 8514" xmlns="http://www.w3.org/2000/svg" xmlns:xlink="http://www.w3.org/1999/xlink" width="46.382" height="46.393" viewBox="0 0 46.382 46.393">
  <defs>
    <clipPath id="clip-path">
      <rect id="Rectangle_16922" data-name="Rectangle 16922" width="46.382" height="46.393" transform="translate(0 0)" fill="#c7d7e6"/>
    </clipPath>
  </defs>
  <g id="Group_8513" data-name="Group 8513" transform="translate(0 0)" clip-path="url(#clip-path)">
    <path id="Path_4529" data-name="Path 4529" d="M17.861,0a3.8,3.8,0,0,0-3.983,3.573V18.456H3.621A3.458,3.458,0,0,0,0,21.715V39.192a3.459,3.459,0,0,0,3.621,3.26,1.124,1.124,0,1,0,0-2.248h0c-.867,0-1.373-.533-1.373-1.012V21.715c0-.479.505-1.013,1.373-1.013H13.878v2.892a3.8,3.8,0,0,0,3.983,3.57h8.554V39.192c0,.479-.5,1.012-1.372,1.012H9.959a1.124,1.124,0,0,0-.8.331L5.244,44.454a1.124,1.124,0,1,0,1.546,1.631c.015-.014.029-.028.042-.042l3.592-3.59H25.042a3.458,3.458,0,0,0,3.62-3.26V27.165h6.01l4.159,4.161a1.124,1.124,0,0,0,1.631-1.546l-.042-.042-4.489-4.489a1.122,1.122,0,0,0-.793-.331H17.861c-1.068,0-1.736-.671-1.736-1.323V3.574a1.558,1.558,0,0,1,1.736-1.325H42.4a1.558,1.558,0,0,1,1.736,1.325v20.02c0,.652-.667,1.323-1.736,1.323a1.124,1.124,0,0,0,0,2.248,3.8,3.8,0,0,0,3.983-3.57V3.574A3.8,3.8,0,0,0,42.4,0ZM30.128,5.155a4.238,4.238,0,0,0-4.222,4.223,1.124,1.124,0,0,0,2.247.061q0-.03,0-.061a1.977,1.977,0,1,1,2.122,1.971,1.2,1.2,0,0,0-.161-.011A1.151,1.151,0,0,0,29,12.66v2.349a1.124,1.124,0,0,0,2.248,0V13.445a4.221,4.221,0,0,0-1.125-8.29Zm0,11.884a1.691,1.691,0,0,0,0,3.381h0a1.691,1.691,0,0,0,0-3.381m-23.29,13.1A2.285,2.285,0,1,0,9.124,32.42a2.285,2.285,0,0,0-2.286-2.285Zm7.491,0a2.285,2.285,0,1,0,2.285,2.285,2.285,2.285,0,0,0-2.285-2.285Zm7.491,0a2.285,2.285,0,0,0-2.286,2.285h0a2.285,2.285,0,1,0,2.286-2.285" transform="translate(0 -0.001)" fill="#c7d7e6"/>
  </g>
</svg>
