<svg xmlns="http://www.w3.org/2000/svg" width="19.503" height="21.75" viewBox="0 0 19.503 21.75"><defs><style>.a{fill:#fff;}</style></defs><path class="a" d="M21.525,15.225,19.5,13.2V9.75a7.553,7.553,0,0,0-6.75-7.5V.75h-1.5v1.5A7.613,7.613,0,0,0,4.5,9.75V13.2L2.475,15.225a.682.682,0,0,0-.225.525V18a.705.705,0,0,0,.75.75H8.25a3.75,3.75,0,1,0,7.5,0H21a.705.705,0,0,0,.75-.75V15.75a.682.682,0,0,0-.225-.525ZM12,21a2.25,2.25,0,0,1-2.25-2.25h4.5A2.25,2.25,0,0,1,12,21Zm8.25-3.75H3.75v-1.2l2.025-2.025A.682.682,0,0,0,6,13.5V9.75a6,6,0,1,1,12,0V13.5a.682.682,0,0,0,.225.525L20.25,16.05Z" transform="translate(-2.248 -0.75)"/></svg>