<svg xmlns="http://www.w3.org/2000/svg" width="21" height="24" viewBox="0 0 21 24"><defs><style>.a{fill:#fff;}</style></defs><path class="a" d="M17.344,18.445l-1.266,4.289a1.317,1.317,0,0,1-.551.9A1.733,1.733,0,0,1,14.461,24H6.539a1.725,1.725,0,0,1-1.066-.363,1.322,1.322,0,0,1-.551-.9L3.656,18.445A10.57,10.57,0,0,1,.973,14.906,10.437,10.437,0,0,1,.832,6.422,10.311,10.311,0,0,1,6.422.832a10.41,10.41,0,0,1,8.156,0,10.311,10.311,0,0,1,5.59,5.59,10.437,10.437,0,0,1-.141,8.484A10.6,10.6,0,0,1,17.344,18.445ZM6.75,15h7.5a.718.718,0,0,0,.527-.223A.726.726,0,0,0,15,14.25a.715.715,0,0,0-.223-.527.723.723,0,0,0-.527-.223H6.75a.718.718,0,0,0-.527.223A.726.726,0,0,0,6,14.25a.715.715,0,0,0,.223.527A.723.723,0,0,0,6.75,15ZM10.5,1.5A8.912,8.912,0,0,0,4.594,3.645,8.684,8.684,0,0,0,1.5,9a25.521,25.521,0,0,0,7.9,1.477L13.64,6.211a.743.743,0,0,1,.844-.164A5.756,5.756,0,0,0,10.5,4.5,5.953,5.953,0,0,0,4.875,8.438q-.82-.164-1.477-.352A7.429,7.429,0,0,1,6.117,4.418,7.26,7.26,0,0,1,10.5,3a7.26,7.26,0,0,1,4.383,1.418A7.429,7.429,0,0,1,17.6,8.086q-.656.188-1.477.352A5.653,5.653,0,0,0,14.93,6.493a.743.743,0,0,1-.164.844L11.6,10.477A25.513,25.513,0,0,0,19.5,9a8.555,8.555,0,0,0-3.082-5.355A8.965,8.965,0,0,0,10.5,1.5Z"/></svg>