<svg xmlns="http://www.w3.org/2000/svg" width="21.029" height="21" viewBox="0 0 21.029 21"><defs><style>.a{fill:#fff;}</style></defs><g transform="translate(-1.5 -1.5)"><path class="a" d="M15.75,1.5A6.75,6.75,0,0,0,9,8.25a6.652,6.652,0,0,0,.292,1.958L1.5,18v4.5H6l7.793-7.793a6.75,6.75,0,0,0,8.707-5.9,6.577,6.577,0,0,0-1.237-4.5A6.75,6.75,0,0,0,15.75,1.5Zm0,12a5.25,5.25,0,0,1-1.5-.225l-.862-.262-.637.637-2.385,2.385L9.308,15,8.25,16.058l1.035,1.035L8.092,18.286,7.058,17.25,6,18.308l1.035,1.035L5.377,21H3V18.623l7.35-7.373.637-.637L10.77,9.9a5.355,5.355,0,0,1,2.55-6.33A5.25,5.25,0,0,1,21,8.071a5.018,5.018,0,0,1-.818,3A5.25,5.25,0,0,1,15.75,13.5Z"/><path class="a" d="M18,7.5A1.5,1.5,0,1,1,16.5,6,1.5,1.5,0,0,1,18,7.5Z"/></g></svg>