<svg xmlns="http://www.w3.org/2000/svg" width="21" height="16.5" viewBox="0 0 21 16.5"><defs><style>.a{fill:#fff;}</style></defs><g transform="translate(-1.5 -3.75)"><path class="a" d="M1.5,17.625H14.782a1.874,1.874,0,0,1,3.436,0H22.5v1.5H18.218a1.874,1.874,0,0,1-3.436,0H1.5"/><path class="a" d="M1.5,11.25H5.782a1.874,1.874,0,0,1,3.436,0H22.5v1.5H9.218a1.874,1.874,0,0,1-3.436,0H1.5"/><path class="a" d="M1.5,4.875H14.782a1.874,1.874,0,0,1,3.436,0H22.5v1.5H18.218a1.874,1.874,0,0,1-3.436,0H1.5"/></g></svg>