<svg xmlns="http://www.w3.org/2000/svg" width="40" height="40" viewBox="0 0 40 40">
  <g id="Group_8483" data-name="Group 8483" transform="translate(-24 -225)">
    <g id="Group_377" data-name="Group 377" transform="translate(-152 65)">
      <g id="Layer_1" transform="translate(-110 -216)">
        <path id="Path_680" data-name="Path 680" d="M306,376h0v40h0a20,20,0,0,1,0-40Z" fill="#1e87f4" fill-rule="evenodd"/>
        <path id="Path_681" data-name="Path 681" d="M306,376h0v40h0a20,20,0,0,0,0-40Z" fill="#00aff1" fill-rule="evenodd"/>
      </g>
      <path id="Subtraction_17" data-name="Subtraction 17" d="M-16796.3,22.565h0a9.989,9.989,0,0,1-3.1-2.075h.006a9.728,9.728,0,0,1-2.207-3.264,9.717,9.717,0,0,1-.758-3.711,9.748,9.748,0,0,1,.758-3.711,9.7,9.7,0,0,1,2.207-3.26,9.809,9.809,0,0,1,3.322-2.155,10.342,10.342,0,0,1,3.783-.734,10.481,10.481,0,0,1,3.795.734,9.854,9.854,0,0,1,3.34,2.151,9.508,9.508,0,0,1,2.082,3.011,10.137,10.137,0,0,1,.84,3.5h3.723a.746.746,0,0,1,.3.5.374.374,0,0,1-.146.276l-4.432,4.318a1.313,1.313,0,0,1-.541.266.722.722,0,0,1-.174.023.439.439,0,0,1-.318-.124l-4.588-4.5a.381.381,0,0,1-.145-.282.742.742,0,0,1,.3-.494h3.5a7.093,7.093,0,0,0-2.186-4.752,7.454,7.454,0,0,0-3.389-1.923,7.843,7.843,0,0,0-1.947-.25,7.858,7.858,0,0,0-1.949.25,7.462,7.462,0,0,0-3.391,1.923,7.186,7.186,0,0,0-1.961,3.323,7.174,7.174,0,0,0,0,3.812,7.186,7.186,0,0,0,1.961,3.323,7.662,7.662,0,0,0,1.318,1.04v2.781Z" transform="translate(16987.547 162.783)" fill="#fff"/>
      <path id="lock" d="M3.173,6.346H8.249v-1.9a2.446,2.446,0,0,0-.744-1.795A2.445,2.445,0,0,0,5.711,1.9a2.445,2.445,0,0,0-1.795.744,2.446,2.446,0,0,0-.744,1.795v1.9Zm8.249.952v5.711a.948.948,0,0,1-.952.952H.952a.918.918,0,0,1-.674-.278A.918.918,0,0,1,0,13.009V7.3a.918.918,0,0,1,.278-.674.918.918,0,0,1,.674-.278h.317v-1.9A4.275,4.275,0,0,1,2.578,1.309,4.274,4.274,0,0,1,5.711,0,4.275,4.275,0,0,1,8.844,1.309a4.273,4.273,0,0,1,1.309,3.133v1.9h.317a.948.948,0,0,1,.952.952Z" transform="translate(189.756 179.243)" fill="#f5f7f9"/>
      <path id="Subtraction_18" data-name="Subtraction 18" d="M10.744,6.568H0a.922.922,0,0,1,.615-.222H.929v-1.9A4.3,4.3,0,0,1,2.237,1.309,4.3,4.3,0,0,1,5.37,0,4.293,4.293,0,0,1,8.5,1.309,4.294,4.294,0,0,1,9.813,4.442v1.9h.317a.916.916,0,0,1,.612.221ZM5.37,1.9a2.456,2.456,0,0,0-1.795.744,2.456,2.456,0,0,0-.743,1.795v1.9H7.909v-1.9a2.456,2.456,0,0,0-.744-1.795A2.456,2.456,0,0,0,5.37,1.9Z" transform="translate(190.096 179.243)" fill="#fafbfc"/>
      <circle id="Ellipse_99" data-name="Ellipse 99" cx="1.5" cy="1.5" r="1.5" transform="translate(194 187)" fill="#1e87f4"/>
      <rect id="Rectangle_1151" data-name="Rectangle 1151" width="1" height="3" rx="0.5" transform="translate(195 189)" fill="#1e87f4"/>
      <path id="Subtraction_20" data-name="Subtraction 20" d="M-16775.957,30.215a.455.455,0,0,1-.32-.122l-4.584-4.5a.376.376,0,0,1-.148-.283.751.751,0,0,1,.3-.493h3.5a7.09,7.09,0,0,0-2.189-4.753,7.508,7.508,0,0,0-3.387-1.923c-.234-.06-.477-.11-.721-.15V15.519a10.777,10.777,0,0,1,2.557.655,9.892,9.892,0,0,1,3.34,2.147,9.526,9.526,0,0,1,2.08,3.011,10.025,10.025,0,0,1,.838,3.5h3.725a.761.761,0,0,1,.3.5.383.383,0,0,1-.146.274l-4.434,4.319a1.346,1.346,0,0,1-.539.266A.833.833,0,0,1-16775.957,30.215Z" transform="translate(16980 151)" fill="#fafbfc"/>
    </g>
  </g>
</svg>
