<svg xmlns="http://www.w3.org/2000/svg" width="15.32" height="15.32" viewBox="0 0 15.32 15.32"><defs><style>.a{fill:#fff;}</style></defs><path class="a" d="M12.078,11.321H1.738a1.661,1.661,0,0,1-1.219-.5A1.657,1.657,0,0,1,.015,9.6V-.742a1.661,1.661,0,0,1,.5-1.219,1.659,1.659,0,0,1,1.219-.5H5.185a.828.828,0,0,1,.606.256.836.836,0,0,1,.256.613.813.813,0,0,1-.256.606.841.841,0,0,1-.606.249H2.6a.828.828,0,0,0-.606.256.828.828,0,0,0-.256.606V8.735A.851.851,0,0,0,2.6,9.6h8.617a.839.839,0,0,0,.606-.249.822.822,0,0,0,.256-.613V6.151a.839.839,0,0,1,.249-.606.814.814,0,0,1,.606-.256.837.837,0,0,1,.613.256.826.826,0,0,1,.256.606V9.6a1.724,1.724,0,0,1-1.724,1.724Zm2.388-8.427a.824.824,0,0,1-.606-.249.835.835,0,0,1-.249-.613v-3.2l-5.56,5.56a.781.781,0,0,1-1.333-.552.752.752,0,0,1,.229-.552l5.56-5.56H9.3a.833.833,0,0,1-.613-.249.825.825,0,0,1-.249-.606.848.848,0,0,1,.249-.613A.82.82,0,0,1,9.3-4h5.17a.828.828,0,0,1,.606.256.828.828,0,0,1,.256.606v5.17a.822.822,0,0,1-.256.613A.847.847,0,0,1,14.467,2.894Z" transform="translate(-0.015 3.999)"/></svg>