<svg xmlns="http://www.w3.org/2000/svg" width="23.254" height="21.802" viewBox="0 0 23.254 21.802"><defs><style>.a{fill:#707070;}</style></defs><g transform="translate(-0.003 -1.122)"><path class="a" d="M4.167,21.979a.771.771,0,0,0,1.084.862l6.38-3.279,6.378,3.279a.771.771,0,0,0,1.084-.86l-1.206-6.874,5.12-4.877a.808.808,0,0,0-.411-1.38L15.478,7.837,12.3,1.548a.745.745,0,0,0-1.347,0L7.782,7.838.664,8.85a.808.808,0,0,0-.411,1.38l5.12,4.877L4.167,21.982Zm7.128-4.021L5.938,20.71l1.008-5.751a.821.821,0,0,0-.237-.734L2.487,10.2l5.889-.837a.763.763,0,0,0,.571-.419l2.684-5.316,2.683,5.316a.763.763,0,0,0,.571.419l5.889.836-4.223,4.025a.82.82,0,0,0-.237.736l1.008,5.751-5.357-2.752a.731.731,0,0,0-.67,0Z" transform="translate(0)"/></g></svg>