<svg xmlns="http://www.w3.org/2000/svg" width="22.525" height="21.887" viewBox="0 0 22.525 21.887"><defs><style>.a{fill:#707070;stroke:#f3f3f3;stroke-width:0.7px;fill-rule:evenodd;}</style></defs><path class="a" d="M11.762,20.977a3.532,3.532,0,0,1,6.662,0h6.085l1.177,1.177-1.177,1.177H18.423a3.532,3.532,0,0,1-6.662,0H4.5l1.177-1.177L4.5,20.977Zm3.331,2.354a1.177,1.177,0,1,0-1.177-1.177A1.177,1.177,0,0,0,15.093,23.331Zm2.354-8.239-2.354,2.354-2.354-2.354H9.208a2.354,2.354,0,0,1-2.354-2.354V6.854A2.354,2.354,0,0,1,9.208,4.5h11.77a2.354,2.354,0,0,1,2.354,2.354v5.885a2.354,2.354,0,0,1-2.354,2.354ZM9.208,6.854v5.885h4.708l1.177,1.177,1.177-1.177h4.708V6.854Z" transform="translate(-3.655 -4.15)"/></svg>