<svg xmlns="http://www.w3.org/2000/svg" width="22.162" height="20.685" viewBox="0 0 22.162 20.685"><defs><style>.a{fill:#707070;}</style></defs><g transform="translate(-2.25 -2.25)"><path class="a" d="M10.8,3.727A3.694,3.694,0,1,1,7.1,7.421,3.694,3.694,0,0,1,10.8,3.727m0-1.477a5.171,5.171,0,1,0,5.171,5.171A5.171,5.171,0,0,0,10.8,2.25Z" transform="translate(-1.159 0)"/><path class="a" d="M17.025,29.115H15.547V25.421a3.694,3.694,0,0,0-3.694-3.694H7.421a3.694,3.694,0,0,0-3.694,3.694v3.694H2.25V25.421A5.171,5.171,0,0,1,7.421,20.25h4.432a5.171,5.171,0,0,1,5.171,5.171Z" transform="translate(0 -6.18)"/><path class="a" d="M24.75,4.5h7.387V5.977H24.75Z" transform="translate(-7.725 -0.773)"/><path class="a" d="M24.75,10.125h7.387V11.6H24.75Z" transform="translate(-7.725 -2.704)"/><path class="a" d="M24.75,15.75h5.171v1.477H24.75Z" transform="translate(-7.725 -4.635)"/></g></svg>