<svg xmlns="http://www.w3.org/2000/svg" width="24.196" height="17.283" viewBox="0 0 24.196 17.283">
  <g id="video-add" transform="translate(-2 -6)">
    <path id="Path_1593" data-name="Path 1593" d="M16.641,14.457H13.185V11H11.457v3.457H8v1.728h3.457v3.457h1.728V16.185h3.457Z" transform="translate(-0.815 -0.679)" fill="#bdc0c4"/>
    <path id="Path_1594" data-name="Path 1594" d="M18.419,23.283H3.728A1.73,1.73,0,0,1,2,21.555V7.728A1.73,1.73,0,0,1,3.728,6H18.419a1.73,1.73,0,0,1,1.728,1.728v3.506L24.83,7.89a.864.864,0,0,1,1.366.7v12.1a.864.864,0,0,1-1.366.7L20.147,18.05v3.5a1.73,1.73,0,0,1-1.728,1.728ZM3.728,7.728V21.556H18.419V16.37a.864.864,0,0,1,1.366-.7l4.683,3.344V10.272l-4.683,3.344a.864.864,0,0,1-1.366-.7V7.728Z" fill="#bdc0c4"/>
  </g>
</svg>
