<svg xmlns="http://www.w3.org/2000/svg" width="32.445" height="33.333" viewBox="0 0 32.445 33.333"><defs><style>.a{fill:#fff;}</style></defs><g transform="translate(-68.078 -143.485)"><g transform="translate(68.078 143.485)"><g transform="translate(0)"><path class="a" d="M24.659,40.048A1.944,1.944,0,0,1,24.811,39a18.424,18.424,0,0,0,1.9-7.751c-.022-1.652-.689-2.335-1.318-3.884a5.531,5.531,0,0,0-.264-.541c-.027-.05-.09-.081-.2-.178a16.573,16.573,0,0,1,.035,5.954A4.2,4.2,0,0,1,22.3,36.025a5.672,5.672,0,0,0-.77.434c.18-.79,1.828-3.613,0-5.821-.049.333-.61,3.415-2.022,4.79-.662,1.216-2.975,1.493-4.129-.674a10.5,10.5,0,0,1-.422-1.034c1.616-.561.962-.923.877-2.789-.833,1.257-.714.644-1.816,1.385-.362.244-.651.007-1.058-.164A4.65,4.65,0,0,1,10.5,30.183,6.973,6.973,0,0,0,5.2,29.124a31.075,31.075,0,0,1,.848,3.461,29.816,29.816,0,0,0,1.8,4.97,27.655,27.655,0,0,0,2.3,5.091c.447.649.868,1.256,1.217,1.884a1.648,1.648,0,0,1,1.772-.411,27.918,27.918,0,0,0,5.785,1.037c.662.1,1.321.213,1.985.292a2.406,2.406,0,0,0,1.873-.557,1.994,1.994,0,0,1,1.73-.523c.445.09.642-.11.592-.539C24.961,42.568,24.782,41.311,24.659,40.048Z" transform="translate(-4.031 -20.639)"/><path class="a" d="M81.18,3.811c-1.51-.789-3.02-1.577-4.485-2.434A9.361,9.361,0,0,0,71.988,0h0V1.638a9.5,9.5,0,0,1,4.752,1.52c2.321,1.4,4.823,2.5,7.279,3.673a17.552,17.552,0,0,0,2.344.721,2,2,0,0,1,0,.518A39.264,39.264,0,0,1,82.4,20.757a26.244,26.244,0,0,1-9.285,10.254,2.346,2.346,0,0,1-1.123.406v1.917a1.368,1.368,0,0,0,.628-.182,24.885,24.885,0,0,0,7.527-6.085,35.248,35.248,0,0,0,7.369-16.2c.315-1.6.451-3.223.7-4.913C85.461,6.064,83.321,4.938,81.18,3.811Z" transform="translate(-55.765 -0.001)"/><path class="a" d="M7.032,3.811c1.51-.789,3.02-1.578,4.485-2.434A9.364,9.364,0,0,1,16.223,0h0V1.638a9.5,9.5,0,0,0-4.752,1.52c-2.321,1.4-4.823,2.5-7.279,3.673a17.553,17.553,0,0,1-2.344.721,1.976,1.976,0,0,0,0,.518A39.263,39.263,0,0,0,5.815,20.758,26.244,26.244,0,0,0,15.1,31.011a2.342,2.342,0,0,0,1.123.406v1.917a1.369,1.369,0,0,1-.628-.182,24.881,24.881,0,0,1-7.527-6.085A35.248,35.248,0,0,1,.7,10.865C.384,9.265.249,7.642,0,5.952,2.75,6.065,4.891,4.938,7.032,3.811Z" transform="translate(-0.001 -0.001)"/></g></g></g></svg>